<svg xmlns="http://www.w3.org/2000/svg" xmlns:xlink="http://www.w3.org/1999/xlink" width="104" zoomAndPan="magnify" viewBox="0 0 78 36.000001" height="48" preserveAspectRatio="xMidYMid meet" version="1.0"><defs><clipPath id="811cb94482"><path d="M 56 10 L 62 10 L 62 16 L 56 16 Z M 56 10 " clip-rule="nonzero"/></clipPath><clipPath id="f3b119ffc7"><path d="M 41.917969 7.296875 L 41.917969 27.730469 C 41.917969 31.761719 45.1875 35.027344 49.214844 35.027344 L 69.648438 35.027344 C 73.679688 35.027344 76.945312 31.761719 76.945312 27.730469 L 76.945312 7.296875 C 76.945312 3.265625 73.679688 0 69.648438 0 L 49.214844 0 C 45.1875 0 41.917969 3.265625 41.917969 7.296875 Z M 41.917969 7.296875 " clip-rule="nonzero"/></clipPath><clipPath id="c9cfc762bd"><path d="M 45 0 L 74 0 L 74 35 L 45 35 Z M 45 0 " clip-rule="nonzero"/></clipPath><clipPath id="a14589b757"><path d="M 41.917969 7.296875 L 41.917969 27.730469 C 41.917969 31.761719 45.1875 35.027344 49.214844 35.027344 L 69.648438 35.027344 C 73.679688 35.027344 76.945312 31.761719 76.945312 27.730469 L 76.945312 7.296875 C 76.945312 3.265625 73.679688 0 69.648438 0 L 49.214844 0 C 45.1875 0 41.917969 3.265625 41.917969 7.296875 Z M 41.917969 7.296875 " clip-rule="nonzero"/></clipPath><clipPath id="06879bc7f8"><path d="M 1.054688 0 L 36.082031 0 L 36.082031 35.027344 L 1.054688 35.027344 Z M 1.054688 0 " clip-rule="nonzero"/></clipPath><clipPath id="4cbf487c60"><path d="M 1.054688 7.296875 L 1.054688 27.730469 C 1.054688 31.761719 4.320312 35.027344 8.351562 35.027344 L 28.785156 35.027344 C 32.8125 35.027344 36.082031 31.761719 36.082031 27.730469 L 36.082031 7.296875 C 36.082031 3.265625 32.8125 0 28.785156 0 L 8.351562 0 C 4.320312 0 1.054688 3.265625 1.054688 7.296875 Z M 1.054688 7.296875 " clip-rule="nonzero"/></clipPath><clipPath id="ad58099d8e"><path d="M 10 15 L 34 15 L 34 33 L 10 33 Z M 10 15 " clip-rule="nonzero"/></clipPath><clipPath id="6fea5fd628"><path d="M 1.054688 7.296875 L 1.054688 27.730469 C 1.054688 31.761719 4.320312 35.027344 8.351562 35.027344 L 28.785156 35.027344 C 32.8125 35.027344 36.082031 31.761719 36.082031 27.730469 L 36.082031 7.296875 C 36.082031 3.265625 32.8125 0 28.785156 0 L 8.351562 0 C 4.320312 0 1.054688 3.265625 1.054688 7.296875 Z M 1.054688 7.296875 " clip-rule="nonzero"/></clipPath></defs><g clip-path="url(#811cb94482)"><g clip-path="url(#f3b119ffc7)"><path fill="#000000" d="M 61.976562 13 C 61.976562 13.335938 61.914062 13.660156 61.785156 13.972656 C 61.65625 14.285156 61.46875 14.558594 61.230469 14.796875 C 60.992188 15.035156 60.71875 15.21875 60.40625 15.347656 C 60.09375 15.480469 59.769531 15.542969 59.433594 15.542969 C 59.09375 15.542969 58.769531 15.480469 58.457031 15.347656 C 58.148438 15.21875 57.871094 15.035156 57.632812 14.796875 C 57.394531 14.558594 57.210938 14.285156 57.082031 13.972656 C 56.953125 13.660156 56.886719 13.335938 56.886719 13 C 56.886719 12.660156 56.953125 12.335938 57.082031 12.023438 C 57.210938 11.710938 57.394531 11.4375 57.632812 11.199219 C 57.871094 10.960938 58.148438 10.777344 58.457031 10.648438 C 58.769531 10.519531 59.09375 10.453125 59.433594 10.453125 C 59.769531 10.453125 60.09375 10.519531 60.40625 10.648438 C 60.71875 10.777344 60.992188 10.960938 61.230469 11.199219 C 61.46875 11.4375 61.65625 11.710938 61.785156 12.023438 C 61.914062 12.335938 61.976562 12.660156 61.976562 13 Z M 61.976562 13 " fill-opacity="1" fill-rule="nonzero"/></g></g><g clip-path="url(#c9cfc762bd)"><g clip-path="url(#a14589b757)"><path fill="#000000" d="M 59.433594 22.355469 C 61.429688 24.300781 63.398438 25.449219 64.988281 25.449219 C 65.507812 25.449219 66 25.339844 66.410156 25.09375 C 67.832031 24.273438 68.351562 22.21875 67.859375 19.292969 C 67.777344 18.773438 67.667969 18.253906 67.53125 17.703125 C 68.078125 17.539062 68.574219 17.375 69.066406 17.210938 C 71.828125 16.144531 73.359375 14.667969 73.359375 13.054688 C 73.359375 11.410156 71.828125 9.933594 69.066406 8.894531 C 68.574219 8.703125 68.078125 8.539062 67.53125 8.402344 C 67.667969 7.855469 67.777344 7.332031 67.859375 6.8125 C 68.324219 3.832031 67.804688 1.75 66.382812 0.929688 C 65.972656 0.683594 65.480469 0.574219 64.960938 0.574219 C 63.398438 0.574219 61.402344 1.722656 59.40625 3.667969 C 57.433594 1.722656 55.464844 0.574219 53.878906 0.574219 C 53.359375 0.574219 52.863281 0.683594 52.453125 0.929688 C 51.03125 1.75 50.511719 3.804688 51.003906 6.730469 C 51.085938 7.25 51.195312 7.773438 51.332031 8.320312 C 50.785156 8.484375 50.292969 8.648438 49.800781 8.8125 C 47.035156 9.878906 45.503906 11.355469 45.503906 12.972656 C 45.503906 14.613281 47.035156 16.089844 49.800781 17.128906 C 50.292969 17.320312 50.785156 17.484375 51.332031 17.621094 C 51.195312 18.171875 51.085938 18.691406 51.003906 19.210938 C 50.539062 22.136719 51.058594 24.21875 52.453125 25.011719 C 52.863281 25.257812 53.359375 25.367188 53.878906 25.367188 C 55.464844 25.421875 57.433594 24.273438 59.433594 22.355469 Z M 57.898438 18.664062 C 58.390625 18.691406 58.914062 18.691406 59.433594 18.691406 C 59.953125 18.691406 60.472656 18.691406 60.964844 18.664062 C 60.472656 19.320312 59.953125 19.921875 59.433594 20.496094 C 58.914062 19.921875 58.390625 19.320312 57.898438 18.664062 Z M 54.507812 15.84375 C 54.78125 16.308594 55.027344 16.746094 55.328125 17.183594 C 54.480469 17.074219 53.6875 16.9375 52.917969 16.773438 C 53.164062 16.035156 53.441406 15.269531 53.769531 14.503906 C 53.988281 14.941406 54.234375 15.40625 54.507812 15.84375 Z M 52.917969 9.25 C 53.6875 9.085938 54.480469 8.949219 55.328125 8.839844 C 55.054688 9.277344 54.78125 9.714844 54.507812 10.179688 C 54.234375 10.644531 53.988281 11.082031 53.769531 11.546875 C 53.414062 10.753906 53.136719 9.988281 52.917969 9.25 Z M 54.425781 13 C 54.78125 12.257812 55.164062 11.519531 55.601562 10.78125 C 56.011719 10.070312 56.476562 9.359375 56.941406 8.648438 C 57.761719 8.59375 58.585938 8.566406 59.433594 8.566406 C 60.308594 8.566406 61.128906 8.59375 61.921875 8.648438 C 62.414062 9.359375 62.851562 10.070312 63.261719 10.78125 C 63.703125 11.519531 64.085938 12.257812 64.441406 13 C 64.085938 13.738281 63.703125 14.476562 63.261719 15.214844 C 62.851562 15.925781 62.386719 16.636719 61.921875 17.347656 C 61.101562 17.402344 60.28125 17.429688 59.433594 17.429688 C 58.558594 17.429688 57.734375 17.402344 56.941406 17.347656 C 56.449219 16.636719 56.011719 15.925781 55.601562 15.214844 C 55.164062 14.476562 54.78125 13.738281 54.425781 13 Z M 65.125 11.519531 L 64.386719 10.152344 C 64.113281 9.6875 63.867188 9.25 63.566406 8.8125 C 64.414062 8.921875 65.207031 9.058594 65.972656 9.222656 C 65.726562 9.988281 65.453125 10.753906 65.125 11.519531 Z M 65.125 14.476562 C 65.453125 15.242188 65.726562 16.007812 65.972656 16.746094 C 65.207031 16.910156 64.414062 17.046875 63.566406 17.15625 C 63.839844 16.71875 64.113281 16.28125 64.386719 15.816406 C 64.632812 15.40625 64.878906 14.941406 65.125 14.476562 Z M 65.753906 23.972656 C 65.535156 24.109375 65.261719 24.164062 64.960938 24.164062 C 63.621094 24.164062 61.949219 23.070312 60.308594 21.425781 C 61.101562 20.578125 61.867188 19.621094 62.632812 18.554688 C 63.921875 18.445312 65.152344 18.253906 66.300781 17.980469 C 66.4375 18.472656 66.519531 18.964844 66.601562 19.457031 C 66.984375 21.78125 66.683594 23.453125 65.753906 23.972656 Z M 67.175781 9.550781 C 70.242188 10.425781 72.074219 11.765625 72.074219 13 C 72.074219 14.066406 70.816406 15.132812 68.601562 15.980469 C 68.160156 16.144531 67.667969 16.308594 67.175781 16.445312 C 66.820312 15.324219 66.382812 14.175781 65.835938 13 C 66.382812 11.820312 66.847656 10.671875 67.175781 9.550781 Z M 64.988281 1.832031 C 65.289062 1.832031 65.535156 1.886719 65.78125 2.023438 C 66.683594 2.546875 67.011719 4.1875 66.628906 6.539062 C 66.546875 7.003906 66.4375 7.496094 66.328125 8.019531 C 65.179688 7.773438 63.949219 7.578125 62.660156 7.441406 C 61.921875 6.375 61.128906 5.417969 60.335938 4.570312 C 61.976562 2.957031 63.648438 1.832031 64.988281 1.832031 Z M 60.964844 7.332031 C 60.472656 7.304688 59.953125 7.304688 59.433594 7.304688 C 58.914062 7.304688 58.390625 7.304688 57.898438 7.332031 C 58.390625 6.675781 58.914062 6.074219 59.433594 5.5 C 59.953125 6.074219 60.472656 6.703125 60.964844 7.332031 Z M 53.109375 2.023438 C 53.328125 1.886719 53.605469 1.832031 53.90625 1.832031 C 55.246094 1.832031 56.914062 2.929688 58.558594 4.570312 C 57.761719 5.417969 56.996094 6.375 56.230469 7.441406 C 54.945312 7.550781 53.714844 7.746094 52.5625 8.019531 C 52.425781 7.523438 52.34375 7.03125 52.261719 6.539062 C 51.878906 4.214844 52.179688 2.574219 53.109375 2.023438 Z M 51.6875 16.445312 C 48.625 15.570312 46.789062 14.230469 46.789062 13 C 46.789062 11.929688 48.046875 10.863281 50.265625 10.015625 C 50.703125 9.851562 51.195312 9.6875 51.6875 9.550781 C 52.042969 10.671875 52.480469 11.820312 53.027344 13 C 52.480469 14.175781 52.015625 15.351562 51.6875 16.445312 Z M 52.261719 19.457031 C 52.34375 18.992188 52.453125 18.5 52.5625 17.980469 C 53.714844 18.226562 54.945312 18.417969 56.230469 18.554688 C 56.96875 19.621094 57.761719 20.578125 58.558594 21.425781 C 56.914062 23.042969 55.246094 24.164062 53.90625 24.164062 C 53.605469 24.164062 53.359375 24.109375 53.109375 23.972656 C 52.179688 23.453125 51.878906 21.78125 52.261719 19.457031 Z M 51.113281 30.730469 C 51.714844 29.992188 51.742188 29.171875 51.414062 28.351562 C 51.085938 27.527344 50.402344 27.144531 49.554688 27.117188 C 48.542969 27.089844 47.5 27.117188 46.488281 27.117188 L 46.296875 27.117188 L 46.296875 34.207031 L 47.117188 34.207031 L 47.117188 31.523438 L 48.40625 31.523438 C 48.570312 31.523438 48.707031 31.578125 48.789062 31.714844 L 50.429688 34.261719 C 50.457031 34.316406 50.539062 34.398438 50.59375 34.398438 L 51.660156 34.398438 C 51.003906 33.386719 50.375 32.425781 49.71875 31.441406 C 50.292969 31.359375 50.785156 31.167969 51.113281 30.730469 Z M 47.117188 30.675781 L 47.117188 27.96875 L 47.417969 27.96875 C 48.046875 27.96875 48.707031 27.941406 49.335938 27.996094 C 50.074219 28.023438 50.59375 28.597656 50.59375 29.335938 C 50.59375 30.074219 49.992188 30.648438 49.253906 30.675781 C 48.597656 30.703125 47.9375 30.675781 47.117188 30.675781 Z M 57.707031 31.03125 C 57.269531 29.117188 55.519531 28.625 54.179688 29.226562 C 53.136719 29.691406 52.671875 30.59375 52.644531 31.714844 C 52.617188 32.5625 52.863281 33.332031 53.523438 33.90625 C 54.261719 34.5625 55.164062 34.644531 56.09375 34.480469 C 56.613281 34.371094 57.078125 34.125 57.433594 33.742188 C 57.296875 33.550781 57.160156 33.359375 57.023438 33.195312 C 56.257812 33.851562 55.410156 34.070312 54.480469 33.632812 C 53.878906 33.332031 53.578125 32.589844 53.523438 32.042969 L 57.761719 32.042969 L 57.761719 31.6875 C 57.789062 31.441406 57.761719 31.222656 57.707031 31.03125 Z M 53.578125 31.46875 C 53.496094 30.648438 54.316406 29.773438 55.21875 29.773438 C 56.257812 29.746094 56.914062 30.375 56.941406 31.46875 Z M 61.976562 29.089844 C 61.566406 29.007812 61.128906 28.980469 60.71875 29.007812 C 60.0625 29.0625 59.488281 29.363281 59.023438 29.855469 C 59.160156 30.046875 59.269531 30.238281 59.433594 30.457031 C 59.488281 30.402344 59.542969 30.347656 59.597656 30.320312 C 60.035156 29.910156 60.554688 29.691406 61.183594 29.746094 C 61.675781 29.773438 62.140625 29.9375 62.277344 30.429688 C 62.386719 30.8125 62.359375 31.222656 62.386719 31.632812 C 62.304688 31.632812 62.277344 31.605469 62.25 31.578125 C 61.59375 31.03125 60.855469 30.921875 60.0625 31.113281 C 59.324219 31.304688 58.859375 31.878906 58.804688 32.617188 C 58.75 33.46875 59.132812 34.097656 59.871094 34.398438 C 60.335938 34.589844 60.855469 34.589844 61.347656 34.480469 C 61.730469 34.398438 61.894531 34.179688 62.441406 33.878906 L 62.441406 34.234375 L 63.207031 34.234375 C 63.207031 33.140625 63.234375 31.796875 63.207031 30.539062 C 63.207031 29.746094 62.742188 29.253906 61.976562 29.089844 Z M 62.359375 32.535156 C 62.332031 32.617188 62.359375 32.699219 62.359375 32.78125 C 62.359375 33.359375 62.222656 33.550781 61.675781 33.769531 C 61.292969 33.90625 60.882812 33.960938 60.472656 33.824219 C 60.007812 33.6875 59.679688 33.277344 59.679688 32.808594 C 59.652344 32.34375 59.953125 31.878906 60.417969 31.742188 C 61.046875 31.523438 61.621094 31.660156 62.140625 32.042969 C 62.304688 32.179688 62.414062 32.316406 62.359375 32.535156 Z M 66.628906 29.828125 C 67.339844 29.609375 67.996094 29.746094 68.488281 30.347656 L 68.574219 30.402344 C 68.765625 30.238281 68.929688 30.074219 69.148438 29.882812 C 69.066406 29.800781 69.039062 29.746094 68.984375 29.664062 C 68.1875 28.816406 66.628906 28.707031 65.671875 29.390625 C 64.332031 30.375 64.359375 32.289062 65.015625 33.304688 C 65.644531 34.261719 66.546875 34.589844 67.613281 34.453125 C 68.242188 34.371094 68.765625 34.070312 69.175781 33.550781 C 68.984375 33.386719 68.792969 33.222656 68.601562 33.03125 C 68.546875 33.085938 68.515625 33.113281 68.488281 33.167969 C 67.75 33.988281 66.519531 33.90625 65.863281 33.03125 C 65.480469 32.507812 65.398438 31.90625 65.507812 31.304688 C 65.5625 30.621094 65.917969 30.074219 66.628906 29.828125 Z M 72.320312 33.550781 C 72.265625 33.578125 72.238281 33.605469 72.238281 33.605469 C 72.019531 33.769531 71.800781 33.796875 71.554688 33.714844 C 71.308594 33.605469 71.28125 33.386719 71.253906 33.167969 L 71.253906 30.046875 C 71.253906 29.992188 71.253906 30.101562 71.28125 29.828125 L 72.320312 29.828125 L 72.320312 29.007812 L 71.226562 29.007812 L 71.226562 27.636719 L 70.40625 27.636719 L 70.40625 29.117188 L 69.695312 29.117188 C 69.640625 29.117188 69.558594 29.171875 69.558594 29.226562 C 69.53125 29.417969 69.558594 29.554688 69.558594 29.828125 L 70.433594 29.828125 L 70.433594 33.332031 C 70.433594 33.769531 70.542969 34.152344 70.925781 34.371094 C 71.335938 34.617188 72.128906 34.5625 72.484375 34.261719 C 72.539062 34.234375 72.566406 34.125 72.566406 34.097656 C 72.484375 33.933594 72.402344 33.742188 72.320312 33.550781 Z M 72.320312 33.550781 " fill-opacity="1" fill-rule="nonzero"/></g></g><g clip-path="url(#06879bc7f8)"><g clip-path="url(#4cbf487c60)"><path fill="#f7df1e" d="M 1.054688 0 L 36.082031 0 L 36.082031 35.027344 L 1.054688 35.027344 Z M 1.054688 0 " fill-opacity="1" fill-rule="nonzero"/></g></g><g clip-path="url(#ad58099d8e)"><g clip-path="url(#6fea5fd628)"><path fill="#000000" d="M 10.265625 29.269531 L 12.945312 27.648438 C 13.460938 28.566406 13.933594 29.339844 15.058594 29.339844 C 16.140625 29.339844 16.824219 28.917969 16.824219 27.273438 L 16.824219 16.082031 L 20.117188 16.082031 L 20.117188 27.320312 C 20.117188 30.730469 18.117188 32.28125 15.203125 32.28125 C 12.566406 32.28125 11.039062 30.917969 10.265625 29.269531 M 21.902344 28.917969 L 24.582031 27.367188 C 25.289062 28.519531 26.207031 29.367188 27.828125 29.367188 C 29.191406 29.367188 30.0625 28.683594 30.0625 27.742188 C 30.0625 26.613281 29.167969 26.214844 27.664062 25.554688 L 26.839844 25.203125 C 24.464844 24.191406 22.890625 22.921875 22.890625 20.242188 C 22.890625 17.773438 24.773438 15.890625 27.710938 15.890625 C 29.804688 15.890625 31.308594 16.621094 32.390625 18.527344 L 29.828125 20.171875 C 29.261719 19.160156 28.652344 18.761719 27.710938 18.761719 C 26.746094 18.761719 26.136719 19.371094 26.136719 20.171875 C 26.136719 21.160156 26.746094 21.558594 28.15625 22.171875 L 28.980469 22.523438 C 31.777344 23.722656 33.355469 24.945312 33.355469 27.695312 C 33.355469 30.660156 31.027344 32.28125 27.898438 32.28125 C 24.84375 32.28125 22.867188 30.824219 21.902344 28.917969 " fill-opacity="1" fill-rule="nonzero"/></g></g></svg>