<svg xmlns="http://www.w3.org/2000/svg" xmlns:xlink="http://www.w3.org/1999/xlink" width="104" zoomAndPan="magnify" viewBox="0 0 78 36.000001" height="48" preserveAspectRatio="xMidYMid meet" version="1.0"><defs><clipPath id="9b9bfb311e"><path d="M 4.558594 9 L 34.476562 9 L 34.476562 27 L 4.558594 27 Z M 4.558594 9 " clip-rule="nonzero"/></clipPath></defs><path fill="#000000" d="M 64.324219 20.679688 C 64.488281 19.300781 64.4375 19.097656 65.46875 19.320312 L 65.726562 19.34375 C 66.519531 19.378906 67.550781 19.21875 68.160156 18.933594 C 69.46875 18.328125 70.242188 17.316406 68.953125 17.582031 C 66.011719 18.1875 65.808594 17.191406 65.808594 17.191406 C 68.914062 12.585938 70.214844 6.734375 69.09375 5.304688 C 66.035156 1.398438 60.746094 3.246094 60.65625 3.292969 L 60.628906 3.296875 C 60.046875 3.175781 59.398438 3.105469 58.667969 3.09375 C 57.335938 3.070312 56.328125 3.441406 55.5625 4.023438 C 55.5625 4.023438 46.121094 0.136719 46.5625 8.914062 C 46.65625 10.78125 49.238281 23.042969 52.320312 19.339844 C 53.445312 17.984375 54.535156 16.839844 54.535156 16.839844 C 55.074219 17.199219 55.722656 17.382812 56.398438 17.316406 L 56.453125 17.273438 C 56.4375 17.441406 56.445312 17.605469 56.472656 17.800781 C 55.679688 18.6875 55.914062 18.84375 54.328125 19.167969 C 52.722656 19.5 53.664062 20.089844 54.28125 20.242188 C 55.027344 20.429688 56.753906 20.695312 57.921875 19.058594 L 57.875 19.246094 C 58.1875 19.496094 58.164062 21.035156 58.207031 22.136719 C 58.253906 23.238281 58.328125 24.265625 58.550781 24.871094 C 58.777344 25.480469 59.039062 27.039062 61.125 26.59375 C 62.867188 26.21875 64.203125 25.679688 64.324219 20.679688 " fill-opacity="1" fill-rule="nonzero"/><path fill="#000000" d="M 60.445312 27.679688 C 59.523438 27.679688 58.925781 27.324219 58.558594 26.980469 C 58.007812 26.460938 57.789062 25.789062 57.660156 25.390625 L 57.601562 25.222656 C 57.339844 24.515625 57.25 23.492188 57.199219 22.179688 C 57.191406 21.980469 57.183594 21.777344 57.179688 21.5625 C 57.175781 21.402344 57.167969 21.207031 57.160156 21 C 56.832031 21.15625 56.480469 21.265625 56.113281 21.328125 C 55.460938 21.441406 54.761719 21.40625 54.035156 21.222656 C 53.519531 21.09375 52.984375 20.828125 52.679688 20.417969 C 51.792969 21.195312 50.945312 21.089844 50.484375 20.933594 C 49.671875 20.664062 48.941406 19.902344 48.257812 18.601562 C 47.769531 17.679688 47.300781 16.476562 46.855469 15.023438 C 46.085938 12.5 45.59375 9.835938 45.550781 8.964844 C 45.414062 6.230469 46.152344 4.273438 47.738281 3.152344 C 50.246094 1.382812 54.039062 2.421875 55.425781 2.894531 C 56.355469 2.335938 57.449219 2.0625 58.683594 2.082031 C 59.347656 2.09375 59.980469 2.152344 60.566406 2.257812 C 61.179688 2.0625 62.390625 1.789062 63.773438 1.804688 C 66.328125 1.835938 68.441406 2.828125 69.890625 4.679688 C 70.921875 6 70.414062 8.773438 70.015625 10.308594 C 69.457031 12.46875 68.480469 14.765625 67.277344 16.765625 C 67.605469 16.769531 68.078125 16.730469 68.75 16.589844 C 70.074219 16.316406 70.460938 17.027344 70.566406 17.347656 C 70.988281 18.621094 69.15625 19.585938 68.585938 19.851562 C 67.851562 20.191406 66.660156 20.398438 65.683594 20.355469 L 65.382812 20.328125 L 65.355469 20.542969 L 65.332031 20.753906 C 65.265625 23.285156 64.90625 24.890625 64.160156 25.953125 C 63.378906 27.0625 62.292969 27.375 61.335938 27.582031 C 61.011719 27.652344 60.714844 27.679688 60.445312 27.679688 Z M 58.507812 18.457031 C 59.101562 18.933594 59.152344 19.828125 59.199219 21.503906 C 59.207031 21.714844 59.210938 21.914062 59.21875 22.097656 C 59.242188 22.65625 59.292969 23.96875 59.5 24.523438 C 59.527344 24.601562 59.554688 24.679688 59.582031 24.761719 C 59.808594 25.464844 59.925781 25.816406 60.914062 25.601562 C 61.746094 25.425781 62.171875 25.265625 62.503906 24.789062 C 62.992188 24.097656 63.261719 22.707031 63.3125 20.65625 L 64.324219 20.679688 L 63.320312 20.558594 L 63.347656 20.308594 C 63.445312 19.484375 63.515625 18.886719 64.066406 18.492188 C 64.507812 18.175781 65.011719 18.207031 65.414062 18.277344 C 64.972656 17.945312 64.851562 17.554688 64.820312 17.394531 L 64.734375 16.976562 L 64.972656 16.625 C 66.335938 14.601562 67.460938 12.117188 68.058594 9.804688 C 68.671875 7.425781 68.484375 6.164062 68.296875 5.925781 C 65.820312 2.761719 61.523438 4.066406 61.074219 4.214844 L 61 4.257812 L 60.617188 4.328125 L 60.421875 4.289062 C 59.886719 4.175781 59.289062 4.113281 58.652344 4.105469 C 57.644531 4.085938 56.835938 4.324219 56.171875 4.828125 L 55.710938 5.179688 L 55.175781 4.957031 C 54.03125 4.492188 50.675781 3.550781 48.902344 4.804688 C 47.917969 5.503906 47.472656 6.867188 47.570312 8.863281 C 47.605469 9.523438 48.050781 12.015625 48.789062 14.433594 C 49.808594 17.777344 50.738281 18.886719 51.125 19.015625 C 51.191406 19.039062 51.367188 18.902344 51.542969 18.695312 C 52.675781 17.328125 53.753906 16.191406 53.800781 16.144531 L 54.386719 15.527344 L 55.09375 16 C 55.378906 16.1875 55.691406 16.296875 56.015625 16.316406 L 57.703125 14.875 L 57.457031 17.371094 C 57.453125 17.425781 57.449219 17.503906 57.472656 17.644531 L 57.546875 18.117188 L 57.226562 18.472656 L 57.191406 18.515625 L 58.117188 18.941406 Z M 58.507812 18.457031 " fill-opacity="1" fill-rule="nonzero"/><path fill="#336791" d="M 68.953125 17.582031 C 66.011719 18.1875 65.808594 17.191406 65.808594 17.191406 C 68.914062 12.585938 70.214844 6.734375 69.09375 5.304688 C 66.035156 1.398438 60.746094 3.246094 60.65625 3.292969 L 60.628906 3.296875 C 60.046875 3.175781 59.398438 3.105469 58.667969 3.09375 C 57.335938 3.070312 56.328125 3.441406 55.5625 4.023438 C 55.5625 4.023438 46.121094 0.136719 46.5625 8.914062 C 46.65625 10.78125 49.238281 23.042969 52.320312 19.339844 C 53.445312 17.984375 54.535156 16.839844 54.535156 16.839844 C 55.074219 17.199219 55.722656 17.382812 56.398438 17.316406 L 56.453125 17.273438 C 56.4375 17.441406 56.441406 17.605469 56.472656 17.800781 C 55.679688 18.6875 55.914062 18.84375 54.324219 19.167969 C 52.71875 19.5 53.664062 20.089844 54.28125 20.242188 C 55.027344 20.429688 56.753906 20.695312 57.921875 19.058594 L 57.875 19.246094 C 58.183594 19.496094 58.402344 20.867188 58.367188 22.109375 C 58.328125 23.351562 58.304688 24.207031 58.550781 24.871094 C 58.796875 25.539062 59.039062 27.039062 61.125 26.59375 C 62.867188 26.21875 63.773438 25.25 63.898438 23.636719 C 63.988281 22.488281 64.1875 22.660156 64.203125 21.632812 L 64.363281 21.144531 C 64.550781 19.589844 64.394531 19.085938 65.46875 19.320312 L 65.726562 19.34375 C 66.519531 19.378906 67.550781 19.21875 68.160156 18.933594 C 69.46875 18.328125 70.242188 17.316406 68.953125 17.582031 Z M 68.953125 17.582031 " fill-opacity="1" fill-rule="nonzero"/><path fill="#ffffff" d="M 60.550781 27.058594 C 58.8125 27.058594 58.261719 25.679688 58.039062 25.117188 C 57.707031 24.292969 57.636719 21.089844 57.710938 18.464844 C 57.714844 18.277344 57.867188 18.128906 58.054688 18.136719 C 58.242188 18.140625 58.386719 18.296875 58.382812 18.484375 C 58.300781 21.511719 58.417969 24.257812 58.664062 24.867188 C 59.042969 25.820312 59.621094 26.652344 61.257812 26.304688 C 62.808594 25.96875 63.386719 25.382812 63.648438 23.882812 C 63.84375 22.730469 64.238281 19.457031 64.285156 18.8125 C 64.300781 18.625 64.460938 18.484375 64.648438 18.5 C 64.832031 18.515625 64.972656 18.675781 64.957031 18.863281 C 64.90625 19.535156 64.515625 22.800781 64.3125 23.996094 C 64.003906 25.769531 63.214844 26.574219 61.398438 26.960938 C 61.089844 27.027344 60.808594 27.058594 60.550781 27.058594 Z M 51.125 20.332031 C 50.957031 20.332031 50.808594 20.300781 50.675781 20.257812 C 49.546875 19.882812 48.472656 18.042969 47.480469 14.792969 C 46.726562 12.316406 46.246094 9.734375 46.203125 8.894531 C 46.078125 6.40625 46.722656 4.644531 48.109375 3.660156 C 50.855469 1.714844 55.476562 3.566406 55.675781 3.648438 C 55.847656 3.71875 55.929688 3.914062 55.859375 4.085938 C 55.789062 4.257812 55.589844 4.339844 55.417969 4.269531 C 55.375 4.253906 50.941406 2.476562 48.496094 4.210938 C 47.308594 5.054688 46.765625 6.617188 46.878906 8.859375 C 46.914062 9.566406 47.359375 12.089844 48.125 14.59375 C 49.011719 17.496094 50.019531 19.328125 50.890625 19.621094 C 51.027344 19.664062 51.445312 19.804688 52.039062 19.089844 C 53.160156 17.738281 54.1875 16.664062 54.199219 16.652344 C 54.328125 16.519531 54.542969 16.515625 54.675781 16.644531 C 54.808594 16.773438 54.816406 16.984375 54.6875 17.121094 C 54.675781 17.128906 53.664062 18.191406 52.558594 19.519531 C 52.035156 20.148438 51.53125 20.332031 51.125 20.332031 Z M 65.789062 17.492188 C 65.722656 17.492188 65.660156 17.472656 65.601562 17.433594 C 65.445312 17.332031 65.40625 17.121094 65.511719 16.96875 C 68.648438 12.308594 69.75 6.679688 68.808594 5.472656 C 67.621094 3.957031 65.941406 3.164062 63.820312 3.117188 C 62.25 3.082031 61.003906 3.484375 60.800781 3.554688 L 60.75 3.574219 C 60.542969 3.640625 60.386719 3.527344 60.328125 3.394531 C 60.257812 3.242188 60.3125 3.058594 60.460938 2.96875 L 60.550781 2.929688 L 60.546875 2.933594 L 60.550781 2.929688 C 60.898438 2.804688 62.164062 2.425781 63.734375 2.441406 C 66.082031 2.464844 68.019531 3.371094 69.339844 5.058594 C 69.964844 5.855469 69.964844 7.695312 69.34375 10.105469 C 68.707031 12.558594 67.515625 15.199219 66.070312 17.34375 C 66.003906 17.441406 65.898438 17.492188 65.789062 17.492188 Z M 65.949219 19.648438 C 65.414062 19.648438 64.933594 19.574219 64.644531 19.402344 C 64.347656 19.222656 64.292969 18.984375 64.285156 18.855469 C 64.203125 17.4375 64.988281 17.191406 65.386719 17.078125 C 65.332031 16.996094 65.25 16.894531 65.167969 16.792969 C 64.9375 16.503906 64.617188 16.105469 64.375 15.511719 C 64.335938 15.417969 64.214844 15.199219 64.074219 14.949219 C 63.320312 13.59375 61.746094 10.773438 62.757812 9.328125 C 63.222656 8.660156 64.15625 8.398438 65.527344 8.546875 C 65.125 7.316406 63.199219 3.46875 58.640625 3.394531 C 57.269531 3.371094 56.144531 3.792969 55.296875 4.644531 C 53.40625 6.558594 53.476562 10.015625 53.476562 10.050781 C 53.480469 10.238281 53.332031 10.390625 53.148438 10.394531 C 52.960938 10.402344 52.804688 10.253906 52.800781 10.066406 C 52.796875 9.914062 52.726562 6.285156 54.820312 4.171875 C 55.800781 3.183594 57.089844 2.695312 58.652344 2.71875 C 61.570312 2.765625 63.449219 4.25 64.507812 5.488281 C 65.667969 6.832031 66.234375 8.320312 66.28125 8.816406 C 66.316406 9.183594 66.050781 9.257812 65.996094 9.269531 L 65.875 9.273438 C 64.53125 9.054688 63.664062 9.207031 63.308594 9.714844 C 62.539062 10.8125 64.027344 13.484375 64.664062 14.621094 C 64.824219 14.914062 64.941406 15.125 64.996094 15.253906 C 65.203125 15.757812 65.476562 16.097656 65.695312 16.371094 C 65.886719 16.613281 66.054688 16.820312 66.113281 17.066406 C 66.140625 17.113281 66.535156 17.695312 68.863281 17.214844 C 69.449219 17.09375 69.800781 17.195312 69.90625 17.519531 C 70.117188 18.15625 68.933594 18.898438 68.28125 19.203125 C 67.695312 19.476562 66.757812 19.648438 65.949219 19.648438 Z M 64.957031 18.800781 C 65.03125 18.875 65.402344 19.003906 66.167969 18.96875 C 66.847656 18.941406 67.566406 18.792969 67.996094 18.59375 C 68.550781 18.335938 68.917969 18.050781 69.105469 17.855469 L 69 17.875 C 67.511719 18.183594 66.457031 18.140625 65.871094 17.753906 C 65.828125 17.726562 65.789062 17.695312 65.753906 17.667969 C 65.691406 17.695312 65.632812 17.710938 65.589844 17.722656 C 65.257812 17.816406 64.910156 17.914062 64.957031 18.800781 Z M 55.335938 20.683594 C 54.964844 20.683594 54.574219 20.632812 54.175781 20.53125 C 53.765625 20.429688 53.070312 20.121094 53.082031 19.609375 C 53.09375 19.039062 53.925781 18.867188 54.238281 18.800781 C 55.367188 18.570312 55.441406 18.476562 55.796875 18.027344 C 55.898438 17.894531 56.027344 17.734375 56.203125 17.539062 C 56.460938 17.246094 56.746094 17.101562 57.042969 17.101562 C 57.253906 17.101562 57.425781 17.171875 57.539062 17.21875 C 57.898438 17.367188 58.199219 17.730469 58.324219 18.160156 C 58.4375 18.550781 58.382812 18.925781 58.175781 19.21875 C 57.488281 20.175781 56.507812 20.683594 55.335938 20.683594 Z M 53.808594 19.640625 C 53.910156 19.71875 54.113281 19.820312 54.339844 19.878906 C 54.683594 19.964844 55.019531 20.007812 55.335938 20.007812 C 56.292969 20.007812 57.066406 19.609375 57.625 18.828125 C 57.742188 18.664062 57.707031 18.457031 57.675781 18.347656 C 57.609375 18.117188 57.449219 17.910156 57.28125 17.839844 C 57.1875 17.800781 57.113281 17.773438 57.042969 17.773438 C 57.007812 17.773438 56.894531 17.773438 56.703125 17.988281 C 56.542969 18.167969 56.425781 18.3125 56.324219 18.445312 C 55.882812 19.003906 55.683594 19.191406 54.375 19.460938 C 54.054688 19.527344 53.890625 19.59375 53.808594 19.640625 Z M 56.398438 18.085938 C 56.238281 18.085938 56.09375 17.964844 56.066406 17.796875 C 56.058594 17.742188 56.054688 17.6875 56.050781 17.628906 C 55.191406 17.613281 54.363281 17.246094 53.734375 16.589844 C 52.941406 15.757812 52.578125 14.609375 52.742188 13.4375 C 52.921875 12.160156 52.855469 11.035156 52.820312 10.429688 C 52.808594 10.261719 52.800781 10.140625 52.800781 10.058594 C 52.800781 9.949219 52.804688 9.667969 53.75 9.1875 C 54.085938 9.019531 54.761719 8.71875 55.496094 8.644531 C 56.71875 8.519531 57.523438 9.0625 57.761719 10.175781 C 58.414062 13.179688 57.8125 14.507812 57.375 15.480469 C 57.296875 15.660156 57.21875 15.832031 57.15625 15.996094 L 57.101562 16.144531 C 56.871094 16.761719 56.671875 17.296875 56.734375 17.695312 C 56.761719 17.878906 56.636719 18.050781 56.453125 18.082031 Z M 53.476562 10.148438 L 53.492188 10.390625 C 53.527344 11.019531 53.597656 12.1875 53.410156 13.53125 C 53.273438 14.496094 53.570312 15.441406 54.222656 16.121094 C 54.738281 16.660156 55.414062 16.957031 56.109375 16.957031 L 56.125 16.957031 C 56.203125 16.628906 56.332031 16.28125 56.472656 15.90625 L 56.527344 15.761719 C 56.59375 15.574219 56.675781 15.394531 56.761719 15.203125 C 57.183594 14.269531 57.707031 13.105469 57.101562 10.316406 C 56.984375 9.765625 56.695312 9.445312 56.21875 9.339844 C 55.242188 9.125 53.785156 9.859375 53.476562 10.148438 Z M 55.511719 10.007812 C 55.496094 10.125 55.730469 10.445312 56.035156 10.488281 C 56.34375 10.53125 56.605469 10.28125 56.621094 10.160156 C 56.636719 10.042969 56.402344 9.910156 56.097656 9.867188 C 55.789062 9.824219 55.527344 9.886719 55.511719 10.007812 Z M 56.105469 10.605469 L 56.019531 10.597656 C 55.832031 10.570312 55.640625 10.453125 55.507812 10.277344 C 55.460938 10.214844 55.386719 10.097656 55.402344 9.992188 C 55.421875 9.835938 55.613281 9.742188 55.90625 9.742188 C 55.972656 9.742188 56.042969 9.75 56.113281 9.757812 C 56.273438 9.78125 56.425781 9.828125 56.535156 9.890625 C 56.726562 9.996094 56.742188 10.117188 56.734375 10.179688 C 56.707031 10.347656 56.4375 10.605469 56.105469 10.605469 Z M 55.625 10.027344 C 55.632812 10.101562 55.816406 10.34375 56.050781 10.375 L 56.105469 10.378906 C 56.324219 10.378906 56.488281 10.207031 56.507812 10.152344 C 56.488281 10.113281 56.347656 10.015625 56.082031 9.980469 C 56.023438 9.972656 55.964844 9.96875 55.90625 9.96875 C 55.738281 9.96875 55.644531 10.007812 55.625 10.027344 Z M 64.835938 9.765625 C 64.851562 9.882812 64.617188 10.203125 64.308594 10.242188 C 64.003906 10.285156 63.742188 10.039062 63.722656 9.917969 C 63.707031 9.800781 63.941406 9.667969 64.25 9.625 C 64.554688 9.582031 64.816406 9.644531 64.835938 9.765625 Z M 64.238281 10.304688 C 63.945312 10.304688 63.691406 10.074219 63.667969 9.925781 C 63.644531 9.75 63.9375 9.613281 64.242188 9.570312 C 64.308594 9.5625 64.375 9.554688 64.4375 9.554688 C 64.699219 9.554688 64.871094 9.632812 64.890625 9.757812 C 64.902344 9.835938 64.839844 9.960938 64.734375 10.070312 C 64.664062 10.144531 64.515625 10.273438 64.316406 10.300781 Z M 64.4375 9.667969 C 64.378906 9.667969 64.320312 9.671875 64.257812 9.679688 C 63.953125 9.722656 63.769531 9.847656 63.78125 9.910156 C 63.789062 9.984375 63.984375 10.191406 64.238281 10.191406 L 64.300781 10.1875 C 64.46875 10.164062 64.59375 10.054688 64.652344 9.992188 C 64.746094 9.894531 64.78125 9.804688 64.777344 9.769531 C 64.773438 9.730469 64.660156 9.667969 64.4375 9.667969 Z M 65.277344 16.605469 C 65.210938 16.605469 65.144531 16.585938 65.089844 16.546875 C 64.933594 16.445312 64.890625 16.234375 64.996094 16.082031 C 65.714844 15.007812 65.582031 13.914062 65.453125 12.859375 C 65.402344 12.410156 65.34375 11.941406 65.359375 11.496094 C 65.375 11.035156 65.433594 10.65625 65.488281 10.289062 C 65.554688 9.855469 65.617188 9.445312 65.59375 8.957031 C 65.582031 8.773438 65.726562 8.613281 65.910156 8.601562 C 66.097656 8.59375 66.253906 8.734375 66.265625 8.921875 C 66.296875 9.476562 66.222656 9.941406 66.15625 10.390625 C 66.101562 10.738281 66.046875 11.097656 66.03125 11.515625 C 66.019531 11.914062 66.070312 12.332031 66.125 12.777344 C 66.257812 13.902344 66.414062 15.175781 65.554688 16.457031 C 65.492188 16.554688 65.382812 16.605469 65.277344 16.605469 Z M 65.277344 16.605469 " fill-opacity="1" fill-rule="nonzero"/><path fill="#000000" d="M 42.515625 27.789062 C 42.804688 27.742188 43.179688 27.699219 43.65625 27.699219 C 44.242188 27.699219 44.671875 27.835938 44.945312 28.082031 C 45.195312 28.300781 45.347656 28.636719 45.347656 29.042969 C 45.347656 29.460938 45.222656 29.789062 44.992188 30.027344 C 44.679688 30.359375 44.167969 30.53125 43.585938 30.53125 C 43.410156 30.53125 43.246094 30.523438 43.109375 30.488281 L 43.109375 32.332031 L 42.515625 32.332031 Z M 43.109375 30.003906 C 43.238281 30.039062 43.402344 30.054688 43.601562 30.054688 C 44.316406 30.054688 44.753906 29.707031 44.753906 29.070312 C 44.753906 28.464844 44.324219 28.171875 43.667969 28.171875 C 43.410156 28.171875 43.210938 28.191406 43.109375 28.21875 Z M 48.941406 30.652344 C 48.941406 31.875 48.09375 32.40625 47.296875 32.40625 C 46.402344 32.40625 45.714844 31.75 45.714844 30.707031 C 45.714844 29.601562 46.4375 28.957031 47.351562 28.957031 C 48.296875 28.953125 48.941406 29.644531 48.941406 30.652344 Z M 46.320312 30.6875 C 46.320312 31.410156 46.738281 31.957031 47.324219 31.957031 C 47.894531 31.957031 48.324219 31.417969 48.324219 30.671875 C 48.324219 30.113281 48.046875 29.40625 47.335938 29.40625 C 46.628906 29.40625 46.320312 30.058594 46.320312 30.6875 Z M 49.613281 31.714844 C 49.792969 31.832031 50.105469 31.957031 50.40625 31.957031 C 50.839844 31.957031 51.046875 31.738281 51.046875 31.464844 C 51.046875 31.179688 50.875 31.019531 50.433594 30.859375 C 49.839844 30.644531 49.558594 30.320312 49.558594 29.921875 C 49.558594 29.390625 49.988281 28.957031 50.699219 28.957031 C 51.03125 28.957031 51.324219 29.050781 51.511719 29.160156 L 51.359375 29.597656 C 51.230469 29.515625 50.992188 29.40625 50.683594 29.40625 C 50.332031 29.40625 50.132812 29.609375 50.132812 29.855469 C 50.132812 30.128906 50.332031 30.25 50.761719 30.414062 C 51.332031 30.632812 51.625 30.917969 51.625 31.410156 C 51.625 31.988281 51.175781 32.398438 50.390625 32.398438 C 50.03125 32.398438 49.695312 32.308594 49.464844 32.171875 Z M 53.121094 28.082031 L 53.121094 29.03125 L 53.976562 29.03125 L 53.976562 29.488281 L 53.121094 29.488281 L 53.121094 31.265625 C 53.121094 31.675781 53.234375 31.90625 53.570312 31.90625 C 53.726562 31.90625 53.84375 31.886719 53.917969 31.867188 L 53.945312 32.316406 C 53.828125 32.363281 53.644531 32.398438 53.414062 32.398438 C 53.132812 32.398438 52.90625 32.308594 52.765625 32.144531 C 52.59375 31.96875 52.53125 31.675781 52.53125 31.285156 L 52.53125 29.488281 L 52.023438 29.488281 L 52.023438 29.03125 L 52.53125 29.03125 L 52.53125 28.238281 Z M 57.457031 29.03125 C 57.441406 29.269531 57.429688 29.535156 57.429688 29.9375 L 57.429688 31.851562 C 57.429688 32.609375 57.277344 33.074219 56.957031 33.359375 C 56.636719 33.660156 56.175781 33.753906 55.757812 33.753906 C 55.363281 33.753906 54.925781 33.660156 54.660156 33.484375 L 54.808594 33.027344 C 55.027344 33.164062 55.371094 33.285156 55.777344 33.285156 C 56.390625 33.285156 56.84375 32.964844 56.84375 32.132812 L 56.84375 31.765625 L 56.828125 31.765625 C 56.644531 32.070312 56.289062 32.316406 55.777344 32.316406 C 54.960938 32.316406 54.375 31.621094 54.375 30.707031 C 54.375 29.589844 55.101562 28.957031 55.859375 28.957031 C 56.433594 28.957031 56.746094 29.253906 56.890625 29.527344 L 56.902344 29.527344 L 56.929688 29.03125 Z M 56.835938 30.332031 C 56.835938 30.230469 56.828125 30.140625 56.800781 30.058594 C 56.691406 29.710938 56.398438 29.425781 55.960938 29.425781 C 55.390625 29.425781 54.980469 29.910156 54.980469 30.671875 C 54.980469 31.320312 55.308594 31.859375 55.957031 31.859375 C 56.324219 31.859375 56.65625 31.628906 56.789062 31.246094 C 56.820312 31.144531 56.835938 31.027344 56.835938 30.925781 Z M 58.382812 30.058594 C 58.382812 29.671875 58.375 29.335938 58.355469 29.03125 L 58.882812 29.03125 L 58.902344 29.679688 L 58.929688 29.679688 C 59.078125 29.234375 59.441406 28.957031 59.84375 28.957031 C 59.910156 28.957031 59.957031 28.960938 60.011719 28.976562 L 60.011719 29.542969 C 59.949219 29.527344 59.890625 29.519531 59.808594 29.519531 C 59.386719 29.519531 59.085938 29.839844 59.003906 30.292969 C 58.988281 30.375 58.976562 30.46875 58.976562 30.570312 L 58.976562 32.332031 L 58.382812 32.332031 Z M 60.878906 30.789062 C 60.890625 31.601562 61.410156 31.933594 62.011719 31.933594 C 62.441406 31.933594 62.699219 31.859375 62.925781 31.765625 L 63.027344 32.195312 C 62.816406 32.289062 62.453125 32.398438 61.929688 32.398438 C 60.914062 32.398438 60.304688 31.730469 60.304688 30.734375 C 60.304688 29.738281 60.890625 28.953125 61.851562 28.953125 C 62.929688 28.953125 63.21875 29.902344 63.21875 30.507812 C 63.21875 30.632812 63.203125 30.726562 63.195312 30.789062 Z M 62.636719 30.359375 C 62.644531 29.976562 62.480469 29.386719 61.804688 29.386719 C 61.199219 29.386719 60.933594 29.945312 60.886719 30.359375 Z M 62.636719 30.359375 " fill-opacity="1" fill-rule="nonzero"/><path fill="#336791" d="M 63.898438 31.609375 C 64.164062 31.769531 64.554688 31.90625 64.960938 31.90625 C 65.570312 31.90625 65.925781 31.585938 65.925781 31.125 C 65.925781 30.695312 65.679688 30.449219 65.058594 30.210938 C 64.308594 29.945312 63.84375 29.554688 63.84375 28.90625 C 63.84375 28.191406 64.4375 27.660156 65.332031 27.660156 C 65.800781 27.660156 66.140625 27.769531 66.347656 27.886719 L 66.183594 28.367188 C 66.03125 28.289062 65.726562 28.152344 65.308594 28.152344 C 64.683594 28.152344 64.445312 28.527344 64.445312 28.839844 C 64.445312 29.269531 64.722656 29.480469 65.359375 29.726562 C 66.136719 30.027344 66.53125 30.402344 66.53125 31.074219 C 66.53125 31.785156 66.007812 32.398438 64.921875 32.398438 C 64.480469 32.398438 63.996094 32.269531 63.75 32.105469 Z M 71.132812 33.003906 C 70.511719 32.84375 69.90625 32.65625 69.375 32.472656 C 69.277344 32.441406 69.183594 32.40625 69.09375 32.40625 C 68.003906 32.363281 67.070312 31.558594 67.070312 30.082031 C 67.070312 28.609375 67.96875 27.660156 69.210938 27.660156 C 70.457031 27.660156 71.269531 28.628906 71.269531 29.984375 C 71.269531 31.164062 70.722656 31.921875 69.960938 32.1875 L 69.960938 32.214844 C 70.417969 32.332031 70.914062 32.441406 71.304688 32.507812 Z M 70.640625 30.011719 C 70.640625 29.089844 70.164062 28.144531 69.191406 28.144531 C 68.1875 28.144531 67.695312 29.070312 67.703125 30.066406 C 67.695312 31.042969 68.234375 31.921875 69.164062 31.921875 C 70.109375 31.921875 70.640625 31.0625 70.640625 30.011719 Z M 72.039062 27.734375 L 72.632812 27.734375 L 72.632812 31.832031 L 74.597656 31.832031 L 74.597656 32.332031 L 72.039062 32.332031 Z M 72.039062 27.734375 " fill-opacity="1" fill-rule="nonzero"/><g clip-path="url(#9b9bfb311e)"><path fill="#000000" d="M 34.164062 25.742188 C 33.097656 26.015625 32.441406 25.753906 31.847656 24.867188 C 30.519531 22.875 29.054688 20.980469 27.640625 19.046875 C 27.457031 18.796875 27.269531 18.550781 27.035156 18.238281 C 25.359375 20.496094 23.6875 22.648438 22.121094 24.882812 C 21.558594 25.683594 20.96875 26.03125 19.921875 25.75 L 26.214844 17.304688 L 20.359375 9.675781 C 21.363281 9.480469 22.0625 9.582031 22.679688 10.484375 C 24.042969 12.476562 25.542969 14.371094 27.042969 16.375 C 28.550781 14.378906 30.035156 12.480469 31.4375 10.507812 C 32 9.707031 32.605469 9.402344 33.617188 9.699219 C 32.851562 10.714844 32.101562 11.714844 31.347656 12.710938 C 30.328125 14.046875 29.328125 15.402344 28.269531 16.714844 C 27.894531 17.183594 27.953125 17.488281 28.289062 17.929688 C 30.246094 20.496094 32.175781 23.09375 34.164062 25.742188 Z M 4.867188 17.164062 C 5.035156 16.320312 5.148438 15.460938 5.382812 14.632812 C 6.785156 9.625 12.535156 7.542969 16.484375 10.644531 C 18.796875 12.464844 19.375 15.03125 19.257812 17.925781 L 6.214844 17.925781 C 6.019531 23.117188 9.757812 26.253906 14.519531 24.652344 C 16.191406 24.09375 17.175781 22.785156 17.667969 21.148438 C 17.917969 20.328125 18.332031 20.199219 19.105469 20.433594 C 18.710938 22.480469 17.816406 24.191406 15.945312 25.261719 C 13.140625 26.863281 9.136719 26.34375 7.03125 24.117188 C 5.785156 22.808594 5.257812 21.179688 5.023438 19.417969 C 4.988281 19.140625 4.917969 18.863281 4.859375 18.585938 C 4.867188 18.113281 4.867188 17.636719 4.867188 17.164062 Z M 6.238281 16.816406 L 18.027344 16.816406 C 17.949219 13.0625 15.613281 10.394531 12.417969 10.371094 C 8.910156 10.34375 6.390625 12.949219 6.238281 16.816406 Z M 6.238281 16.816406 " fill-opacity="1" fill-rule="nonzero"/></g></svg>